<svg height="512pt" viewBox="0 0 512 512" width="512pt" xmlns="http://www.w3.org/2000/svg"><linearGradient id="a" gradientTransform="matrix(1 0 0 -1 0 -20854)" gradientUnits="userSpaceOnUse" x1="0" x2="512" y1="-21110" y2="-21110"><stop offset="0" stop-color="#00f38d"/><stop offset="1" stop-color="#009eff"/></linearGradient><path d="M512 256c0 141.387-114.613 256-256 256S0 397.387 0 256 114.613 0 256 0s256 114.613 256 256zm0 0" fill="url(#a)"/><g fill="#fff"><path d="M329.637 433H182.363C125.367 433 79 386.633 79 329.637V182.363C79 125.367 125.367 79 182.363 79h147.274C386.633 79 433 125.367 433 182.363v147.274C433 386.633 386.633 433 329.637 433zM182.363 109C141.91 109 109 141.91 109 182.363v147.274C109 370.09 141.91 403 182.363 403h147.274C370.09 403 403 370.09 403 329.637V182.363C403 141.91 370.09 109 329.637 109zm0 0"/><path d="M256 352c-52.934 0-96-43.066-96-96s43.066-96 96-96 96 43.066 96 96-43.066 96-96 96zm0-162c-36.395 0-66 29.605-66 66s29.605 66 66 66 66-29.605 66-66-29.605-66-66-66zm109.832-30.102c0 7.582-6.148 13.73-13.73 13.73-7.582 0-13.73-6.148-13.73-13.73 0-7.582 6.148-13.73 13.73-13.73 7.582 0 13.73 6.148 13.73 13.73zm0 0"/></g></svg>